<svg width="221" height="73" viewBox="0 0 221 73" fill="none" xmlns="http://www.w3.org/2000/svg">
<path d="M9.684 9.69428H6.552V6.63428H4.23V9.69428H1.116V11.8903H4.23V14.9503H6.552V11.8903H9.684V9.69428ZM11.0676 4.49228V8.92028H13.6596V6.86828H17.8356L13.3176 17.0923H16.4856L21.1656 6.38228V4.49228H11.0676ZM30.4234 20.5843H33.1054C31.5754 17.8843 30.9274 15.1843 30.9274 12.1603C30.9274 9.13628 31.5754 6.43629 33.1054 3.73628H30.4234C28.9834 5.87828 28.1734 8.84828 28.1734 12.1603C28.1734 15.4723 28.9834 18.4063 30.4234 20.5843ZM45.1814 12.0703H43.1294V9.71228H40.3754V12.0703H36.9914L42.4994 4.49228H39.4394L33.4994 12.4843V14.4463H40.2854V17.0923H43.1294V14.4463H45.1814V12.0703ZM50.4113 4.27628C47.7473 4.27628 45.6413 5.89628 45.6413 8.47028C45.6413 10.8463 47.5493 12.3943 49.9793 12.3943C51.2933 12.3943 52.3733 11.9983 53.1113 11.2603C53.0213 13.6903 51.6533 14.9323 49.5653 14.9323C48.7013 14.9323 47.8913 14.7703 47.2073 14.3023L46.1273 16.4443C47.0093 17.0023 48.2873 17.3083 49.6193 17.3083C53.4353 17.3083 56.0453 14.8783 56.0453 10.5223C56.0453 6.45428 53.9033 4.27628 50.4113 4.27628ZM50.6273 10.2163C49.3313 10.2163 48.4853 9.47829 48.4853 8.32628C48.4853 7.17429 49.3493 6.45428 50.5913 6.45428C51.9773 6.45428 52.7873 7.24628 52.7873 8.32628C52.7873 9.42428 51.9053 10.2163 50.6273 10.2163ZM61.7642 9.22629H60.7382L60.9362 6.83228H66.1922V4.49228H58.5062L57.8582 11.5843H61.0802C63.3662 11.5843 64.0142 12.2323 64.0142 13.2223C64.0142 14.2483 63.1142 14.8603 61.6562 14.8603C60.3422 14.8603 59.0282 14.4463 58.0742 13.7263L56.9222 15.9583C58.1462 16.8223 59.9822 17.3083 61.7282 17.3083C65.3282 17.3083 66.9662 15.3643 66.9662 13.1323C66.9662 10.9003 65.4902 9.22629 61.7642 9.22629ZM70.3093 20.5843C71.7853 18.4063 72.5773 15.4723 72.5773 12.1603C72.5773 8.84828 71.7853 5.87828 70.3093 3.73628H67.6273C69.1753 6.43629 69.8233 9.13628 69.8233 12.1603C69.8233 15.1843 69.1753 17.8843 67.6273 20.5843H70.3093ZM79.4641 4.49228V8.92028H82.0561V6.86828H86.2321L81.7141 17.0923H84.8821L89.5621 6.38228V4.49228H79.4641ZM95.9086 17.3083C99.0226 17.3083 101.309 14.9503 101.309 10.7923C101.309 6.63428 99.0226 4.27628 95.9086 4.27628C92.8126 4.27628 90.5086 6.63428 90.5086 10.7923C90.5086 14.9503 92.8126 17.3083 95.9086 17.3083ZM95.9086 14.8423C94.4686 14.8423 93.4606 13.6543 93.4606 10.7923C93.4606 7.93029 94.4686 6.74228 95.9086 6.74228C97.3666 6.74228 98.3746 7.93029 98.3746 10.7923C98.3746 13.6543 97.3666 14.8423 95.9086 14.8423ZM102.421 4.49228V8.92028H105.013V6.86828H109.189L104.671 17.0923H107.839L112.519 6.38228V4.49228H102.421ZM113.155 13.1503H118.249V10.9003H113.155V13.1503ZM123.579 14.7163L126.477 11.9803C128.241 10.3423 128.583 9.22629 128.583 8.00229C128.583 5.71628 126.711 4.27628 123.903 4.27628C121.635 4.27628 119.871 5.19428 118.899 6.61628L121.023 7.98428C121.635 7.13828 122.553 6.72428 123.633 6.72428C124.965 6.72428 125.649 7.30028 125.649 8.29028C125.649 8.90228 125.451 9.55028 124.335 10.6123L119.475 15.2023V17.0923H128.997V14.7163H123.579ZM129.624 4.49228V6.83228H132.144V17.0923H135.06V4.49228H129.624ZM137.483 13.1503H142.577V10.9003H137.483V13.1503ZM152.814 10.4683C153.75 9.89229 154.29 9.01028 154.29 7.87628C154.29 5.66228 152.31 4.27628 149.412 4.27628C146.55 4.27628 144.57 5.66228 144.57 7.87628C144.57 9.01028 145.092 9.89229 146.028 10.4683C144.822 11.0803 144.12 12.0883 144.12 13.4383C144.12 15.8143 146.226 17.3083 149.412 17.3083C152.616 17.3083 154.74 15.8143 154.74 13.4383C154.74 12.0883 154.038 11.0803 152.814 10.4683ZM149.412 6.41828C150.6 6.41828 151.392 7.01229 151.392 8.00229C151.392 8.95628 150.618 9.55028 149.412 9.55028C148.224 9.55028 147.468 8.95628 147.468 8.00229C147.468 7.01229 148.242 6.41828 149.412 6.41828ZM149.412 15.1663C147.972 15.1663 147.072 14.4643 147.072 13.3483C147.072 12.2323 147.972 11.5483 149.412 11.5483C150.87 11.5483 151.788 12.2323 151.788 13.3483C151.788 14.4643 150.87 15.1663 149.412 15.1663ZM160.395 9.22629H159.369L159.567 6.83228H164.823V4.49228H157.137L156.489 11.5843H159.711C161.997 11.5843 162.645 12.2323 162.645 13.2223C162.645 14.2483 161.745 14.8603 160.287 14.8603C158.973 14.8603 157.659 14.4463 156.705 13.7263L155.553 15.9583C156.777 16.8223 158.613 17.3083 160.359 17.3083C163.959 17.3083 165.597 15.3643 165.597 13.1323C165.597 10.9003 164.121 9.22629 160.395 9.22629Z" fill="url(#paint0_linear_1:89)"/>
<path d="M25.016 40.5424L21.2 47.6104C20.928 48.1144 20.608 48.4904 20.24 48.7384C19.88 48.9784 19.484 49.0984 19.052 49.0984C18.732 49.0984 18.388 49.0224 18.02 48.8704L18.272 48.1504C18.56 48.2624 18.824 48.3184 19.064 48.3184C19.616 48.3184 20.068 48.0184 20.42 47.4184L20.66 47.0104L17.252 40.5424H18.2L21.128 46.2304L24.128 40.5424H25.016ZM32.8907 40.5424V48.9424H32.0147V41.3104H27.9587L27.8627 44.1184C27.8227 45.2784 27.7267 46.2144 27.5747 46.9264C27.4307 47.6304 27.2067 48.1584 26.9027 48.5104C26.5987 48.8544 26.1947 49.0264 25.6907 49.0264C25.4747 49.0264 25.2507 48.9984 25.0187 48.9424L25.0907 48.1504C25.2267 48.1824 25.3587 48.1984 25.4867 48.1984C25.8387 48.1984 26.1227 48.0584 26.3387 47.7784C26.5627 47.4984 26.7307 47.0664 26.8427 46.4824C26.9547 45.8904 27.0307 45.1104 27.0707 44.1424L27.1907 40.5424H32.8907ZM35.5806 49.0024C35.4046 49.0024 35.2526 48.9384 35.1246 48.8104C35.0046 48.6824 34.9446 48.5264 34.9446 48.3424C34.9446 48.1584 35.0046 48.0064 35.1246 47.8864C35.2526 47.7584 35.4046 47.6944 35.5806 47.6944C35.7566 47.6944 35.9086 47.7584 36.0366 47.8864C36.1646 48.0064 36.2286 48.1584 36.2286 48.3424C36.2286 48.5264 36.1646 48.6824 36.0366 48.8104C35.9086 48.9384 35.7566 49.0024 35.5806 49.0024ZM42.9442 40.5424V48.9424H42.0802V41.3104H40.1002V40.5424H42.9442ZM47.5681 40.4704C48.6801 40.4704 49.5321 40.8384 50.1241 41.5744C50.7161 42.3024 51.0121 43.3344 51.0121 44.6704C51.0121 45.6064 50.8521 46.3984 50.5321 47.0464C50.2121 47.6944 49.7641 48.1864 49.1881 48.5224C48.6121 48.8504 47.9401 49.0144 47.1721 49.0144C46.3401 49.0144 45.6761 48.8624 45.1801 48.5584L45.5281 47.8624C45.9281 48.1264 46.4721 48.2584 47.1601 48.2584C48.0881 48.2584 48.8161 47.9664 49.3441 47.3824C49.8721 46.7904 50.1361 45.9344 50.1361 44.8144C50.1361 44.6064 50.1241 44.3784 50.1001 44.1304C49.8921 44.5864 49.5601 44.9424 49.1041 45.1984C48.6481 45.4464 48.1241 45.5704 47.5321 45.5704C46.9801 45.5704 46.4881 45.4664 46.0561 45.2584C45.6321 45.0504 45.3001 44.7584 45.0601 44.3824C44.8201 43.9984 44.7001 43.5544 44.7001 43.0504C44.7001 42.5384 44.8241 42.0864 45.0721 41.6944C45.3201 41.3024 45.6601 41.0024 46.0921 40.7944C46.5321 40.5784 47.0241 40.4704 47.5681 40.4704ZM47.6641 44.8384C48.0881 44.8384 48.4601 44.7584 48.7801 44.5984C49.1081 44.4384 49.3641 44.2184 49.5481 43.9384C49.7321 43.6584 49.8241 43.3464 49.8241 43.0024C49.8241 42.6824 49.7361 42.3864 49.5601 42.1144C49.3921 41.8424 49.1401 41.6224 48.8041 41.4544C48.4681 41.2864 48.0681 41.2024 47.6041 41.2024C46.9961 41.2024 46.5001 41.3704 46.1161 41.7064C45.7401 42.0344 45.5521 42.4744 45.5521 43.0264C45.5521 43.5784 45.7401 44.0184 46.1161 44.3464C46.5001 44.6744 47.0161 44.8384 47.6641 44.8384ZM55.6126 49.0144C54.9646 49.0144 54.3846 48.8424 53.8726 48.4984C53.3686 48.1544 52.9726 47.6624 52.6846 47.0224C52.4046 46.3744 52.2646 45.6144 52.2646 44.7424C52.2646 43.8704 52.4046 43.1144 52.6846 42.4744C52.9726 41.8264 53.3686 41.3304 53.8726 40.9864C54.3846 40.6424 54.9646 40.4704 55.6126 40.4704C56.2606 40.4704 56.8366 40.6424 57.3406 40.9864C57.8526 41.3304 58.2526 41.8264 58.5406 42.4744C58.8286 43.1144 58.9726 43.8704 58.9726 44.7424C58.9726 45.6144 58.8286 46.3744 58.5406 47.0224C58.2526 47.6624 57.8526 48.1544 57.3406 48.4984C56.8366 48.8424 56.2606 49.0144 55.6126 49.0144ZM55.6126 48.2224C56.1006 48.2224 56.5286 48.0864 56.8966 47.8144C57.2726 47.5424 57.5646 47.1464 57.7726 46.6264C57.9806 46.1064 58.0846 45.4784 58.0846 44.7424C58.0846 44.0064 57.9806 43.3784 57.7726 42.8584C57.5646 42.3384 57.2726 41.9424 56.8966 41.6704C56.5286 41.3984 56.1006 41.2624 55.6126 41.2624C55.1246 41.2624 54.6926 41.3984 54.3166 41.6704C53.9486 41.9424 53.6606 42.3384 53.4526 42.8584C53.2446 43.3784 53.1406 44.0064 53.1406 44.7424C53.1406 45.4784 53.2446 46.1064 53.4526 46.6264C53.6606 47.1464 53.9486 47.5424 54.3166 47.8144C54.6926 48.0864 55.1246 48.2224 55.6126 48.2224ZM62.4179 43.9864C63.6339 43.9864 64.5179 44.2064 65.0699 44.6464C65.6299 45.0784 65.9099 45.6864 65.9099 46.4704C65.9099 46.9584 65.7939 47.3944 65.5619 47.7784C65.3379 48.1624 64.9979 48.4664 64.5419 48.6904C64.0859 48.9064 63.5259 49.0144 62.8619 49.0144C62.2619 49.0144 61.6899 48.9184 61.1459 48.7264C60.6099 48.5264 60.1779 48.2624 59.8499 47.9344L60.2699 47.2504C60.5499 47.5384 60.9179 47.7744 61.3739 47.9584C61.8299 48.1344 62.3219 48.2224 62.8499 48.2224C63.5459 48.2224 64.0819 48.0664 64.4579 47.7544C64.8419 47.4424 65.0339 47.0264 65.0339 46.5064C65.0339 45.9304 64.8179 45.4944 64.3859 45.1984C63.9619 44.9024 63.2419 44.7544 62.2259 44.7544H60.4379L60.8699 40.5424H65.4659V41.3104H61.6259L61.3379 43.9864H62.4179ZM76.2794 41.3104H71.8034L71.8154 48.9424H70.9394V40.5424H76.2794V41.3104ZM80.3539 49.0144C79.5219 49.0144 78.7659 48.8304 78.0859 48.4624C77.4139 48.0864 76.8859 47.5744 76.5019 46.9264C76.1259 46.2784 75.9379 45.5504 75.9379 44.7424C75.9379 43.9344 76.1259 43.2064 76.5019 42.5584C76.8859 41.9104 77.4139 41.4024 78.0859 41.0344C78.7659 40.6584 79.5219 40.4704 80.3539 40.4704C81.1859 40.4704 81.9339 40.6544 82.5979 41.0224C83.2699 41.3904 83.7979 41.9024 84.1819 42.5584C84.5659 43.2064 84.7579 43.9344 84.7579 44.7424C84.7579 45.5504 84.5659 46.2824 84.1819 46.9384C83.7979 47.5864 83.2699 48.0944 82.5979 48.4624C81.9339 48.8304 81.1859 49.0144 80.3539 49.0144ZM80.3539 48.2224C81.0179 48.2224 81.6179 48.0744 82.1539 47.7784C82.6899 47.4744 83.1099 47.0584 83.4139 46.5304C83.7179 45.9944 83.8699 45.3984 83.8699 44.7424C83.8699 44.0864 83.7179 43.4944 83.4139 42.9664C83.1099 42.4304 82.6899 42.0144 82.1539 41.7184C81.6179 41.4144 81.0179 41.2624 80.3539 41.2624C79.6899 41.2624 79.0859 41.4144 78.5419 41.7184C78.0059 42.0144 77.5819 42.4304 77.2699 42.9664C76.9659 43.4944 76.8139 44.0864 76.8139 44.7424C76.8139 45.3984 76.9659 45.9944 77.2699 46.5304C77.5819 47.0584 78.0059 47.4744 78.5419 47.7784C79.0859 48.0744 79.6899 48.2224 80.3539 48.2224ZM94.3586 48.1744V50.8264H93.5306V48.9424H86.1986L86.1866 50.8264H85.3586L85.3706 48.1744H85.7906C86.3426 48.1424 86.7266 47.7064 86.9426 46.8664C87.1586 46.0184 87.2906 44.8184 87.3386 43.2664L87.4346 40.5424H93.0986V48.1744H94.3586ZM88.1306 43.3504C88.0906 44.6304 87.9906 45.6864 87.8306 46.5184C87.6786 47.3424 87.4186 47.8944 87.0506 48.1744H92.2226V41.3104H88.2026L88.1306 43.3504ZM101.569 46.6984H96.8893L95.8813 48.9424H94.9573L98.7973 40.5424H99.6733L103.513 48.9424H102.577L101.569 46.6984ZM101.245 45.9784L99.2293 41.4664L97.2133 45.9784H101.245Z" fill="black"/>
<path fill-rule="evenodd" clip-rule="evenodd" d="M3.6 39.9473C3.6 40 3.5775 40.0431 3.55 40.0431C3.5225 40.0431 3.5 40.0862 3.5 40.1389C3.5 40.1916 3.4775 40.2347 3.45 40.2347C3.4225 40.2347 3.4 40.2993 3.4 40.3783C3.4 40.4574 3.3775 40.522 3.35 40.522C3.3225 40.522 3.3 40.5866 3.3 40.6657C3.3 40.7447 3.2775 40.8093 3.25 40.8093C3.2225 40.8093 3.2 40.8524 3.2 40.9051C3.2 40.9578 3.1775 41.0009 3.15 41.0009C3.1225 41.0009 3.1 41.0655 3.1 41.1445C3.1 41.2236 3.0775 41.2882 3.05 41.2882C3.0225 41.2882 3 41.3313 3 41.384C3 41.4367 2.9775 41.4798 2.95 41.4798C2.9225 41.4798 2.9 41.5444 2.9 41.6234C2.9 41.7024 2.8775 41.7671 2.85 41.7671C2.8225 41.7671 2.8 41.8102 2.8 41.8629C2.8 41.9156 2.7775 41.9586 2.75 41.9586C2.7225 41.9586 2.7 42.0233 2.7 42.1023C2.7 42.1813 2.6775 42.246 2.65 42.246C2.6225 42.246 2.6 42.2891 2.6 42.3418C2.6 42.3944 2.5775 42.4375 2.55 42.4375C2.5225 42.4375 2.5 42.5022 2.5 42.5812C2.5 42.6602 2.4775 42.7249 2.45 42.7249C2.4225 42.7249 2.4 42.768 2.4 42.8206C2.4 42.8733 2.3775 42.9164 2.35 42.9164C2.3225 42.9164 2.3 42.9811 2.3 43.0601C2.3 43.1391 2.2775 43.2037 2.25 43.2037C2.2225 43.2037 2.2 43.2468 2.2 43.2995C2.2 43.3522 2.1775 43.3953 2.15 43.3953C2.1225 43.3953 2.1 43.4599 2.1 43.539C2.1 43.618 2.0775 43.6826 2.05 43.6826C2.0225 43.6826 2 43.7257 2 43.7784C2 43.8311 1.9775 43.8742 1.95 43.8742C1.9225 43.8742 1.9 43.9388 1.9 44.0178C1.9 44.0969 1.8775 44.1615 1.85 44.1615C1.8225 44.1615 1.8 44.2046 1.8 44.2573C1.8 44.31 1.7775 44.3531 1.75 44.3531C1.7225 44.3531 1.7 44.4177 1.7 44.4967C1.7 44.5757 1.6775 44.6404 1.65 44.6404C1.6225 44.6404 1.6 44.6835 1.6 44.7362C1.6 44.7889 1.5775 44.832 1.55 44.832C1.5225 44.832 1.5 44.8966 1.5 44.9756C1.5 45.0546 1.4775 45.1193 1.45 45.1193C1.4225 45.1193 1.4 45.1839 1.4 45.2629C1.4 45.342 1.3775 45.4066 1.35 45.4066C1.3225 45.4066 1.3 45.4497 1.3 45.5024C1.3 45.5551 1.2775 45.5982 1.25 45.5982C1.2225 45.5982 1.2 45.6628 1.2 45.7418C1.2 45.8208 1.1775 45.8855 1.15 45.8855C1.1225 45.8855 1.1 45.9286 1.1 45.9813C1.1 46.0339 1.0775 46.077 1.05 46.077C1.0225 46.077 1 46.1417 1 46.2207C1 46.2997 0.9775 46.3644 0.95 46.3644C0.9225 46.3644 0.9 46.3982 0.9 46.4396C0.9 46.598 0.76785 46.6517 0.37855 46.6517H0V47.1306V47.6095H2.1H4.2V47.1306V46.6517H3.9C3.63335 46.6517 3.6 46.6411 3.6 46.5559C3.6 46.5033 3.6225 46.4602 3.65 46.4602C3.6775 46.4602 3.7 46.3955 3.7 46.3165C3.7 46.2375 3.7225 46.1728 3.75 46.1728C3.7775 46.1728 3.8 46.1082 3.8 46.0292C3.8 45.9501 3.8225 45.8855 3.85 45.8855C3.8775 45.8855 3.9 45.8208 3.9 45.7418C3.9 45.6628 3.9225 45.5982 3.95 45.5982C3.9775 45.5982 4 45.5335 4 45.4545C4 45.3755 4.0225 45.3108 4.05 45.3108C4.0775 45.3108 4.1 45.2554 4.1 45.1877C4.1 45.12 4.13375 45.0322 4.175 44.9927C4.24165 44.9289 4.25835 44.9289 4.325 44.9927C4.36625 45.0322 4.4 45.0984 4.4 45.1398C4.4 45.1812 4.4225 45.2151 4.45 45.2151C4.4775 45.2151 4.5 45.2534 4.5 45.3003C4.5 45.3471 4.545 45.4165 4.6 45.4545C4.655 45.4925 4.7 45.5619 4.7 45.6087C4.7 45.6556 4.7225 45.6939 4.75 45.6939C4.7775 45.6939 4.8 45.7323 4.8 45.7791C4.8 45.826 4.845 45.8954 4.9 45.9334C4.955 45.9714 5 46.0407 5 46.0876C5 46.1345 5.0225 46.1728 5.05 46.1728C5.0775 46.1728 5.1 46.2112 5.1 46.258C5.1 46.3049 5.145 46.3743 5.2 46.4123C5.255 46.4502 5.3 46.5196 5.3 46.5665C5.3 46.6133 5.3225 46.6517 5.35 46.6517C5.3775 46.6517 5.4 46.6901 5.4 46.7369C5.4 46.7838 5.445 46.8532 5.5 46.8911C5.555 46.9291 5.6 46.9985 5.6 47.0454C5.6 47.0922 5.6225 47.1306 5.65 47.1306C5.6775 47.1306 5.7 47.1689 5.7 47.2158C5.7 47.2627 5.745 47.3321 5.8 47.37C5.855 47.408 5.9 47.4774 5.9 47.5243C5.9 47.5775 5.93745 47.6095 6 47.6095C6.06665 47.6095 6.1 47.5775 6.1 47.5137C6.1 47.461 6.1225 47.4179 6.15 47.4179C6.1775 47.4179 6.2 47.3796 6.2 47.3327C6.2 47.2858 6.245 47.2165 6.3 47.1785C6.355 47.1405 6.4 47.0711 6.4 47.0242C6.4 46.9774 6.4225 46.939 6.45 46.939C6.4775 46.939 6.5 46.9007 6.5 46.8538C6.5 46.807 6.545 46.7376 6.6 46.6996C6.655 46.6616 6.7 46.597 6.7 46.5559C6.7 46.5149 6.745 46.4502 6.8 46.4123C6.855 46.3743 6.9 46.3049 6.9 46.258C6.9 46.2112 6.9225 46.1728 6.95 46.1728C6.9775 46.1728 7 46.1345 7 46.0876C7 46.0407 7.045 45.9714 7.1 45.9334C7.155 45.8954 7.2 45.826 7.2 45.7791C7.2 45.7323 7.2225 45.6939 7.25 45.6939C7.2775 45.6939 7.3 45.6556 7.3 45.6087C7.3 45.5619 7.345 45.4925 7.4 45.4545C7.455 45.4165 7.5 45.3471 7.5 45.3003C7.5 45.2534 7.5225 45.2151 7.55 45.2151C7.5775 45.2151 7.6 45.1812 7.6 45.1398C7.6 45.0672 7.71275 44.9277 7.77145 44.9277C7.78715 44.9277 7.8 44.9708 7.8 45.0235C7.8 45.0762 7.8225 45.1193 7.85 45.1193C7.8775 45.1193 7.9 45.1624 7.9 45.2151C7.9 45.2677 7.9225 45.3108 7.95 45.3108C7.9775 45.3108 8 45.3755 8 45.4545C8 45.5335 8.0225 45.5982 8.05 45.5982C8.0775 45.5982 8.1 45.6628 8.1 45.7418C8.1 45.8208 8.1225 45.8855 8.15 45.8855C8.1775 45.8855 8.2 45.9501 8.2 46.0292C8.2 46.1082 8.2225 46.1728 8.25 46.1728C8.2775 46.1728 8.3 46.2357 8.3 46.3125C8.3 46.3893 8.3279 46.4611 8.36205 46.472C8.4072 46.4864 8.40135 46.5136 8.34065 46.5717C8.287 46.6231 8.1754 46.6517 8.02855 46.6517H7.8V47.1306V47.6095H9.9H12V47.1306V46.6517H11.6214C11.2321 46.6517 11.1 46.598 11.1 46.4396C11.1 46.3982 11.0775 46.3644 11.05 46.3644C11.0225 46.3644 11 46.2997 11 46.2207C11 46.1417 10.9775 46.077 10.95 46.077C10.9225 46.077 10.9 46.0339 10.9 45.9813C10.9 45.9286 10.8775 45.8855 10.85 45.8855C10.8225 45.8855 10.8 45.8208 10.8 45.7418C10.8 45.6628 10.7775 45.5982 10.75 45.5982C10.7225 45.5982 10.7 45.5551 10.7 45.5024C10.7 45.4497 10.6775 45.4066 10.65 45.4066C10.6225 45.4066 10.6 45.342 10.6 45.2629C10.6 45.1839 10.5775 45.1193 10.55 45.1193C10.5225 45.1193 10.5 45.0762 10.5 45.0235C10.5 44.9708 10.4775 44.9277 10.45 44.9277C10.4225 44.9277 10.4 44.8631 10.4 44.7841C10.4 44.705 10.3775 44.6404 10.35 44.6404C10.3225 44.6404 10.3 44.5973 10.3 44.5446C10.3 44.4919 10.2775 44.4488 10.25 44.4488C10.2225 44.4488 10.2 44.3842 10.2 44.3052C10.2 44.2262 10.1775 44.1615 10.15 44.1615C10.1225 44.1615 10.1 44.1184 10.1 44.0657C10.1 44.0131 10.0775 43.97 10.05 43.97C10.0225 43.97 10 43.9053 10 43.8263C10 43.7473 9.9775 43.6826 9.95 43.6826C9.9225 43.6826 9.9 43.6395 9.9 43.5869C9.9 43.5342 9.8775 43.4911 9.85 43.4911C9.8225 43.4911 9.8 43.4264 9.8 43.3474C9.8 43.2684 9.7775 43.2037 9.75 43.2037C9.7225 43.2037 9.7 43.1391 9.7 43.0601C9.7 42.9811 9.6775 42.9164 9.65 42.9164C9.6225 42.9164 9.6 42.8733 9.6 42.8206C9.6 42.768 9.5775 42.7249 9.55 42.7249C9.5225 42.7249 9.5 42.6602 9.5 42.5812C9.5 42.5022 9.4775 42.4375 9.45 42.4375C9.4225 42.4375 9.4 42.3944 9.4 42.3418C9.4 42.2891 9.3775 42.246 9.35 42.246C9.3225 42.246 9.3 42.1813 9.3 42.1023C9.3 42.0233 9.2775 41.9586 9.25 41.9586C9.2225 41.9586 9.2 41.9156 9.2 41.8629C9.2 41.8102 9.1775 41.7671 9.15 41.7671C9.1225 41.7671 9.1 41.7024 9.1 41.6234C9.1 41.5444 9.0775 41.4798 9.05 41.4798C9.0225 41.4798 9 41.4367 9 41.384C9 41.3313 8.9775 41.2882 8.95 41.2882C8.9225 41.2882 8.9 41.2236 8.9 41.1445C8.9 41.0655 8.8775 41.0009 8.85 41.0009C8.8225 41.0009 8.8 40.9578 8.8 40.9051C8.8 40.8524 8.7775 40.8093 8.75 40.8093C8.7225 40.8093 8.7 40.7447 8.7 40.6657C8.7 40.5866 8.6775 40.522 8.65 40.522C8.6225 40.522 8.6 40.4789 8.6 40.4262C8.6 40.3735 8.5775 40.3304 8.55 40.3304C8.5225 40.3304 8.5 40.2658 8.5 40.1868C8.5 40.1078 8.4775 40.0431 8.45 40.0431C8.4225 40.0431 8.4 40 8.4 39.9473C8.4 39.8947 8.3775 39.8516 8.35 39.8516C8.3225 39.8516 8.3 39.8899 8.3 39.9368C8.3 39.9836 8.255 40.053 8.2 40.091C8.145 40.129 8.1 40.1984 8.1 40.2453C8.1 40.2921 8.0775 40.3304 8.05 40.3304C8.0225 40.3304 8 40.3735 8 40.4262C8 40.4789 7.9775 40.522 7.95 40.522C7.9225 40.522 7.9 40.5604 7.9 40.6072C7.9 40.6541 7.855 40.7235 7.8 40.7614C7.745 40.7994 7.7 40.8688 7.7 40.9157C7.7 40.9625 7.6775 41.0009 7.65 41.0009C7.6225 41.0009 7.6 41.044 7.6 41.0967C7.6 41.1493 7.5775 41.1924 7.55 41.1924C7.5225 41.1924 7.5 41.2308 7.5 41.2776C7.5 41.3245 7.455 41.3939 7.4 41.4319C7.345 41.4699 7.3 41.5392 7.3 41.5861C7.3 41.633 7.2775 41.6713 7.25 41.6713C7.2225 41.6713 7.2 41.7144 7.2 41.7671C7.2 41.8198 7.1775 41.8629 7.15 41.8629C7.1225 41.8629 7.1 41.9012 7.1 41.9481C7.1 41.9949 7.055 42.0643 7 42.1023C6.945 42.1403 6.9 42.2097 6.9 42.2566C6.9 42.3034 6.8775 42.3418 6.85 42.3418C6.8225 42.3418 6.8 42.3849 6.8 42.4375C6.8 42.4902 6.7775 42.5333 6.75 42.5333C6.7225 42.5333 6.7 42.5717 6.7 42.6185C6.7 42.6654 6.655 42.7348 6.6 42.7728C6.545 42.8107 6.5 42.8801 6.5 42.927C6.5 42.9738 6.4775 43.0122 6.45 43.0122C6.4225 43.0122 6.4 43.0553 6.4 43.108C6.4 43.1606 6.3775 43.2037 6.35 43.2037C6.3225 43.2037 6.3 43.2421 6.3 43.2889C6.3 43.3358 6.255 43.4052 6.2 43.4432C6.145 43.4812 6.1 43.5506 6.1 43.5974C6.1 43.6443 6.06465 43.6826 6.02145 43.6826C5.9204 43.6826 5.8 43.5673 5.8 43.4705C5.8 43.4292 5.7775 43.3953 5.75 43.3953C5.7225 43.3953 5.7 43.3522 5.7 43.2995C5.7 43.2468 5.6775 43.2037 5.65 43.2037C5.6225 43.2037 5.6 43.1654 5.6 43.1186C5.6 43.0717 5.555 43.0023 5.5 42.9643C5.445 42.9263 5.4 42.8569 5.4 42.8101C5.4 42.7632 5.3775 42.7249 5.35 42.7249C5.3225 42.7249 5.3 42.6818 5.3 42.6291C5.3 42.5764 5.2775 42.5333 5.25 42.5333C5.2225 42.5333 5.2 42.495 5.2 42.4481C5.2 42.4012 5.155 42.3318 5.1 42.2939C5.045 42.2559 5 42.1865 5 42.1396C5 42.0928 4.9775 42.0544 4.95 42.0544C4.9225 42.0544 4.9 42.0113 4.9 41.9586C4.9 41.906 4.8775 41.8629 4.85 41.8629C4.8225 41.8629 4.8 41.8245 4.8 41.7777C4.8 41.7308 4.755 41.6614 4.7 41.6234C4.645 41.5855 4.6 41.5161 4.6 41.4692C4.6 41.4223 4.5775 41.384 4.55 41.384C4.5225 41.384 4.5 41.3409 4.5 41.2882C4.5 41.2355 4.4775 41.1924 4.45 41.1924C4.4225 41.1924 4.4 41.1541 4.4 41.1072C4.4 41.0604 4.355 40.991 4.3 40.953C4.245 40.915 4.2 40.8456 4.2 40.7987C4.2 40.7519 4.1775 40.7136 4.15 40.7136C4.1225 40.7136 4.1 40.6705 4.1 40.6178C4.1 40.5651 4.0775 40.522 4.05 40.522C4.0225 40.522 4 40.4836 4 40.4368C4 40.3899 3.955 40.3205 3.9 40.2826C3.845 40.2446 3.8 40.1752 3.8 40.1283C3.8 40.0815 3.7775 40.0431 3.75 40.0431C3.7225 40.0431 3.7 40 3.7 39.9473C3.7 39.8947 3.6775 39.8516 3.65 39.8516C3.6225 39.8516 3.6 39.8947 3.6 39.9473Z" fill="black"/>
<path d="M145.712 40.6V49H135.416V40.6H136.292V48.232H140.132V40.6H141.008V48.232H144.836V40.6H145.712ZM154.481 48.232V49H148.541V40.6H154.301V41.368H149.429V44.356H153.773V45.112H149.429V48.232H154.481ZM163.039 40.6V49H162.163V41.368H158.107L158.011 44.176C157.971 45.336 157.875 46.272 157.723 46.984C157.579 47.688 157.355 48.216 157.051 48.568C156.747 48.912 156.343 49.084 155.839 49.084C155.623 49.084 155.399 49.056 155.167 49L155.239 48.208C155.375 48.24 155.507 48.256 155.635 48.256C155.987 48.256 156.271 48.116 156.487 47.836C156.711 47.556 156.879 47.124 156.991 46.54C157.103 45.948 157.179 45.168 157.219 44.2L157.339 40.6H163.039ZM171.813 48.232V49H165.873V40.6H171.633V41.368H166.761V44.356H171.105V45.112H166.761V48.232H171.813ZM180.851 40.6V49H179.975V41.368H174.659V49H173.783V40.6H180.851ZM183.686 40.6H184.562V47.56L189.938 40.6H190.742V49H189.866V42.052L184.49 49H183.686V40.6ZM193.66 40.6L196.048 43.924L198.424 40.6H199.468L196.6 44.632L199.696 49H198.652L196.048 45.388L193.444 49H192.424L195.508 44.668L192.64 40.6H193.66ZM206.37 46.756H201.69L200.682 49H199.758L203.598 40.6H204.474L208.314 49H207.378L206.37 46.756ZM206.046 46.036L204.03 41.524L202.014 46.036H206.046Z" fill="black"/>
<path fill-rule="evenodd" clip-rule="evenodd" d="M120.6 41.005C120.6 41.0576 120.577 41.1007 120.55 41.1007C120.522 41.1007 120.5 41.1438 120.5 41.1965C120.5 41.2492 120.477 41.2923 120.45 41.2923C120.422 41.2923 120.4 41.3569 120.4 41.436C120.4 41.515 120.377 41.5796 120.35 41.5796C120.322 41.5796 120.3 41.6443 120.3 41.7233C120.3 41.8023 120.277 41.8669 120.25 41.8669C120.222 41.8669 120.2 41.91 120.2 41.9627C120.2 42.0154 120.178 42.0585 120.15 42.0585C120.122 42.0585 120.1 42.1231 120.1 42.2022C120.1 42.2812 120.077 42.3458 120.05 42.3458C120.022 42.3458 120 42.3889 120 42.4416C120 42.4943 119.978 42.5374 119.95 42.5374C119.923 42.5374 119.9 42.602 119.9 42.681C119.9 42.7601 119.877 42.8247 119.85 42.8247C119.822 42.8247 119.8 42.8678 119.8 42.9205C119.8 42.9732 119.778 43.0163 119.75 43.0163C119.723 43.0163 119.7 43.0809 119.7 43.1599C119.7 43.2389 119.677 43.3036 119.65 43.3036C119.622 43.3036 119.6 43.3467 119.6 43.3994C119.6 43.4521 119.577 43.4952 119.55 43.4952C119.522 43.4952 119.5 43.5598 119.5 43.6388C119.5 43.7178 119.477 43.7825 119.45 43.7825C119.422 43.7825 119.4 43.8256 119.4 43.8783C119.4 43.9309 119.378 43.974 119.35 43.974C119.323 43.974 119.3 44.0387 119.3 44.1177C119.3 44.1967 119.278 44.2614 119.25 44.2614C119.223 44.2614 119.2 44.3045 119.2 44.3571C119.2 44.4098 119.177 44.4529 119.15 44.4529C119.122 44.4529 119.1 44.5176 119.1 44.5966C119.1 44.6756 119.078 44.7402 119.05 44.7402C119.023 44.7402 119 44.7833 119 44.836C119 44.8887 118.977 44.9318 118.95 44.9318C118.922 44.9318 118.9 44.9964 118.9 45.0755C118.9 45.1545 118.878 45.2191 118.85 45.2191C118.823 45.2191 118.8 45.2622 118.8 45.3149C118.8 45.3676 118.778 45.4107 118.75 45.4107C118.722 45.4107 118.7 45.4753 118.7 45.5543C118.7 45.6334 118.678 45.698 118.65 45.698C118.623 45.698 118.6 45.7411 118.6 45.7938C118.6 45.8465 118.578 45.8896 118.55 45.8896C118.523 45.8896 118.5 45.9542 118.5 46.0332C118.5 46.1122 118.477 46.1769 118.45 46.1769C118.422 46.1769 118.4 46.2415 118.4 46.3206C118.4 46.3996 118.378 46.4642 118.35 46.4642C118.323 46.4642 118.3 46.5073 118.3 46.56C118.3 46.6127 118.277 46.6558 118.25 46.6558C118.222 46.6558 118.2 46.7204 118.2 46.7994C118.2 46.8785 118.178 46.9431 118.15 46.9431C118.123 46.9431 118.1 46.9862 118.1 47.0389C118.1 47.0916 118.078 47.1347 118.05 47.1347C118.023 47.1347 118 47.1993 118 47.2783C118 47.3573 117.978 47.422 117.95 47.422C117.923 47.422 117.9 47.4559 117.9 47.4972C117.9 47.6556 117.768 47.7093 117.379 47.7093H117V48.1882V48.6671H119.1H121.2V48.1882V47.7093H120.9C120.633 47.7093 120.6 47.6987 120.6 47.6135C120.6 47.5609 120.623 47.5178 120.65 47.5178C120.678 47.5178 120.7 47.4531 120.7 47.3741C120.7 47.2951 120.722 47.2304 120.75 47.2304C120.777 47.2304 120.8 47.1658 120.8 47.0868C120.8 47.0078 120.822 46.9431 120.85 46.9431C120.878 46.9431 120.9 46.8785 120.9 46.7994C120.9 46.7204 120.922 46.6558 120.95 46.6558C120.977 46.6558 121 46.5911 121 46.5121C121 46.4331 121.023 46.3685 121.05 46.3685C121.077 46.3685 121.1 46.313 121.1 46.2453C121.1 46.1776 121.134 46.0898 121.175 46.0503C121.242 45.9865 121.258 45.9865 121.325 46.0503C121.366 46.0898 121.4 46.156 121.4 46.1974C121.4 46.2388 121.422 46.2727 121.45 46.2727C121.477 46.2727 121.5 46.311 121.5 46.3579C121.5 46.4047 121.545 46.4741 121.6 46.5121C121.655 46.5501 121.7 46.6195 121.7 46.6664C121.7 46.7132 121.722 46.7516 121.75 46.7516C121.778 46.7516 121.8 46.7899 121.8 46.8368C121.8 46.8836 121.845 46.953 121.9 46.991C121.955 47.029 122 47.0984 122 47.1452C122 47.1921 122.022 47.2304 122.05 47.2304C122.077 47.2304 122.1 47.2688 122.1 47.3156C122.1 47.3625 122.145 47.4319 122.2 47.4699C122.255 47.5079 122.3 47.5772 122.3 47.6241C122.3 47.671 122.322 47.7093 122.35 47.7093C122.377 47.7093 122.4 47.7477 122.4 47.7945C122.4 47.8414 122.445 47.9108 122.5 47.9488C122.555 47.9867 122.6 48.0561 122.6 48.103C122.6 48.1498 122.622 48.1882 122.65 48.1882C122.678 48.1882 122.7 48.2266 122.7 48.2734C122.7 48.3203 122.745 48.3897 122.8 48.4276C122.855 48.4656 122.9 48.535 122.9 48.5819C122.9 48.6351 122.937 48.6671 123 48.6671C123.067 48.6671 123.1 48.6351 123.1 48.5713C123.1 48.5186 123.123 48.4755 123.15 48.4755C123.178 48.4755 123.2 48.4372 123.2 48.3903C123.2 48.3435 123.245 48.2741 123.3 48.2361C123.355 48.1981 123.4 48.1287 123.4 48.0818C123.4 48.035 123.422 47.9967 123.45 47.9967C123.477 47.9967 123.5 47.9583 123.5 47.9115C123.5 47.8646 123.545 47.7952 123.6 47.7572C123.655 47.7192 123.7 47.6546 123.7 47.6135C123.7 47.5725 123.745 47.5079 123.8 47.4699C123.855 47.4319 123.9 47.3625 123.9 47.3156C123.9 47.2688 123.922 47.2304 123.95 47.2304C123.977 47.2304 124 47.1921 124 47.1452C124 47.0984 124.045 47.029 124.1 46.991C124.155 46.953 124.2 46.8836 124.2 46.8368C124.2 46.7899 124.223 46.7516 124.25 46.7516C124.278 46.7516 124.3 46.7132 124.3 46.6664C124.3 46.6195 124.345 46.5501 124.4 46.5121C124.455 46.4741 124.5 46.4047 124.5 46.3579C124.5 46.311 124.523 46.2727 124.55 46.2727C124.578 46.2727 124.6 46.2388 124.6 46.1974C124.6 46.1248 124.713 45.9853 124.771 45.9853C124.787 45.9853 124.8 46.0284 124.8 46.0811C124.8 46.1338 124.822 46.1769 124.85 46.1769C124.878 46.1769 124.9 46.22 124.9 46.2727C124.9 46.3254 124.923 46.3685 124.95 46.3685C124.978 46.3685 125 46.4331 125 46.5121C125 46.5911 125.023 46.6558 125.05 46.6558C125.077 46.6558 125.1 46.7204 125.1 46.7994C125.1 46.8785 125.123 46.9431 125.15 46.9431C125.177 46.9431 125.2 47.0078 125.2 47.0868C125.2 47.1658 125.222 47.2304 125.25 47.2304C125.277 47.2304 125.3 47.2933 125.3 47.3701C125.3 47.4469 125.328 47.5187 125.362 47.5296C125.407 47.544 125.401 47.5712 125.341 47.6293C125.287 47.6807 125.175 47.7093 125.029 47.7093H124.8V48.1882V48.6671H126.9H129V48.1882V47.7093H128.621C128.232 47.7093 128.1 47.6556 128.1 47.4972C128.1 47.4559 128.078 47.422 128.05 47.422C128.023 47.422 128 47.3573 128 47.2783C128 47.1993 127.977 47.1347 127.95 47.1347C127.922 47.1347 127.9 47.0916 127.9 47.0389C127.9 46.9862 127.878 46.9431 127.85 46.9431C127.823 46.9431 127.8 46.8785 127.8 46.7994C127.8 46.7204 127.778 46.6558 127.75 46.6558C127.723 46.6558 127.7 46.6127 127.7 46.56C127.7 46.5073 127.677 46.4642 127.65 46.4642C127.623 46.4642 127.6 46.3996 127.6 46.3206C127.6 46.2415 127.577 46.1769 127.55 46.1769C127.523 46.1769 127.5 46.1338 127.5 46.0811C127.5 46.0284 127.477 45.9853 127.45 45.9853C127.422 45.9853 127.4 45.9207 127.4 45.8417C127.4 45.7627 127.378 45.698 127.35 45.698C127.323 45.698 127.3 45.6549 127.3 45.6022C127.3 45.5496 127.278 45.5065 127.25 45.5065C127.223 45.5065 127.2 45.4418 127.2 45.3628C127.2 45.2838 127.177 45.2191 127.15 45.2191C127.123 45.2191 127.1 45.176 127.1 45.1234C127.1 45.0707 127.077 45.0276 127.05 45.0276C127.023 45.0276 127 44.9629 127 44.8839C127 44.8049 126.978 44.7402 126.95 44.7402C126.923 44.7402 126.9 44.6971 126.9 44.6445C126.9 44.5918 126.878 44.5487 126.85 44.5487C126.823 44.5487 126.8 44.484 126.8 44.405C126.8 44.326 126.778 44.2614 126.75 44.2614C126.722 44.2614 126.7 44.1967 126.7 44.1177C126.7 44.0387 126.677 43.974 126.65 43.974C126.622 43.974 126.6 43.9309 126.6 43.8783C126.6 43.8256 126.578 43.7825 126.55 43.7825C126.523 43.7825 126.5 43.7178 126.5 43.6388C126.5 43.5598 126.477 43.4952 126.45 43.4952C126.422 43.4952 126.4 43.4521 126.4 43.3994C126.4 43.3467 126.378 43.3036 126.35 43.3036C126.323 43.3036 126.3 43.2389 126.3 43.1599C126.3 43.0809 126.278 43.0163 126.25 43.0163C126.222 43.0163 126.2 42.9732 126.2 42.9205C126.2 42.8678 126.178 42.8247 126.15 42.8247C126.123 42.8247 126.1 42.7601 126.1 42.681C126.1 42.602 126.078 42.5374 126.05 42.5374C126.023 42.5374 126 42.4943 126 42.4416C126 42.3889 125.977 42.3458 125.95 42.3458C125.922 42.3458 125.9 42.2812 125.9 42.2022C125.9 42.1231 125.878 42.0585 125.85 42.0585C125.823 42.0585 125.8 42.0154 125.8 41.9627C125.8 41.91 125.778 41.8669 125.75 41.8669C125.722 41.8669 125.7 41.8023 125.7 41.7233C125.7 41.6443 125.678 41.5796 125.65 41.5796C125.623 41.5796 125.6 41.5365 125.6 41.4838C125.6 41.4312 125.578 41.3881 125.55 41.3881C125.523 41.3881 125.5 41.3234 125.5 41.2444C125.5 41.1654 125.478 41.1007 125.45 41.1007C125.423 41.1007 125.4 41.0576 125.4 41.005C125.4 40.9523 125.378 40.9092 125.35 40.9092C125.323 40.9092 125.3 40.9475 125.3 40.9944C125.3 41.0413 125.255 41.1106 125.2 41.1486C125.145 41.1866 125.1 41.256 125.1 41.3029C125.1 41.3497 125.077 41.3881 125.05 41.3881C125.023 41.3881 125 41.4312 125 41.4838C125 41.5365 124.978 41.5796 124.95 41.5796C124.923 41.5796 124.9 41.618 124.9 41.6648C124.9 41.7117 124.855 41.7811 124.8 41.8191C124.745 41.857 124.7 41.9264 124.7 41.9733C124.7 42.0201 124.677 42.0585 124.65 42.0585C124.622 42.0585 124.6 42.1016 124.6 42.1543C124.6 42.207 124.578 42.2501 124.55 42.2501C124.523 42.2501 124.5 42.2884 124.5 42.3352C124.5 42.3821 124.455 42.4515 124.4 42.4895C124.345 42.5275 124.3 42.5969 124.3 42.6437C124.3 42.6906 124.278 42.7289 124.25 42.7289C124.223 42.7289 124.2 42.772 124.2 42.8247C124.2 42.8774 124.177 42.9205 124.15 42.9205C124.122 42.9205 124.1 42.9588 124.1 43.0057C124.1 43.0526 124.055 43.122 124 43.1599C123.945 43.1979 123.9 43.2673 123.9 43.3142C123.9 43.361 123.878 43.3994 123.85 43.3994C123.823 43.3994 123.8 43.4425 123.8 43.4952C123.8 43.5478 123.778 43.5909 123.75 43.5909C123.722 43.5909 123.7 43.6293 123.7 43.6761C123.7 43.723 123.655 43.7924 123.6 43.8304C123.545 43.8683 123.5 43.9377 123.5 43.9846C123.5 44.0315 123.477 44.0698 123.45 44.0698C123.422 44.0698 123.4 44.1129 123.4 44.1656C123.4 44.2183 123.378 44.2614 123.35 44.2614C123.323 44.2614 123.3 44.2997 123.3 44.3466C123.3 44.3934 123.255 44.4628 123.2 44.5008C123.145 44.5388 123.1 44.6082 123.1 44.6551C123.1 44.7019 123.065 44.7402 123.021 44.7402C122.92 44.7402 122.8 44.6249 122.8 44.5281C122.8 44.4868 122.777 44.4529 122.75 44.4529C122.722 44.4529 122.7 44.4098 122.7 44.3571C122.7 44.3045 122.678 44.2614 122.65 44.2614C122.622 44.2614 122.6 44.223 122.6 44.1762C122.6 44.1293 122.555 44.0599 122.5 44.0219C122.445 43.9839 122.4 43.9146 122.4 43.8677C122.4 43.8208 122.377 43.7825 122.35 43.7825C122.322 43.7825 122.3 43.7394 122.3 43.6867C122.3 43.634 122.278 43.5909 122.25 43.5909C122.223 43.5909 122.2 43.5526 122.2 43.5057C122.2 43.4589 122.155 43.3895 122.1 43.3515C122.045 43.3135 122 43.2441 122 43.1972C122 43.1504 121.977 43.112 121.95 43.112C121.923 43.112 121.9 43.0689 121.9 43.0163C121.9 42.9636 121.877 42.9205 121.85 42.9205C121.822 42.9205 121.8 42.8821 121.8 42.8353C121.8 42.7884 121.755 42.719 121.7 42.681C121.645 42.6431 121.6 42.5737 121.6 42.5268C121.6 42.48 121.578 42.4416 121.55 42.4416C121.523 42.4416 121.5 42.3985 121.5 42.3458C121.5 42.2932 121.477 42.2501 121.45 42.2501C121.422 42.2501 121.4 42.2117 121.4 42.1649C121.4 42.118 121.355 42.0486 121.3 42.0106C121.245 41.9726 121.2 41.9032 121.2 41.8564C121.2 41.8095 121.177 41.7712 121.15 41.7712C121.122 41.7712 121.1 41.7281 121.1 41.6754C121.1 41.6227 121.077 41.5796 121.05 41.5796C121.023 41.5796 121 41.5413 121 41.4944C121 41.4475 120.955 41.3782 120.9 41.3402C120.845 41.3022 120.8 41.2328 120.8 41.1859C120.8 41.1391 120.777 41.1007 120.75 41.1007C120.722 41.1007 120.7 41.0576 120.7 41.005C120.7 40.9523 120.678 40.9092 120.65 40.9092C120.623 40.9092 120.6 40.9523 120.6 41.005Z" fill="black"/>
<path d="M23.396 65.9146C23.98 66.0346 24.424 66.2706 24.728 66.6226C25.032 66.9666 25.184 67.4186 25.184 67.9786C25.184 68.7066 24.924 69.2666 24.404 69.6586C23.892 70.0506 23.136 70.2466 22.136 70.2466H18.416V61.8466H21.908C22.804 61.8466 23.504 62.0306 24.008 62.3986C24.512 62.7666 24.764 63.2986 24.764 63.9946C24.764 64.4666 24.644 64.8666 24.404 65.1946C24.164 65.5146 23.828 65.7546 23.396 65.9146ZM19.292 65.6506H21.86C22.508 65.6506 23.004 65.5186 23.348 65.2546C23.7 64.9906 23.876 64.6066 23.876 64.1026C23.876 63.5986 23.7 63.2146 23.348 62.9506C23.004 62.6866 22.508 62.5546 21.86 62.5546H19.292V65.6506ZM22.136 69.5386C23.584 69.5386 24.308 68.9986 24.308 67.9186C24.308 66.8626 23.584 66.3346 22.136 66.3346H19.292V69.5386H22.136ZM30.9203 64.8466C31.9123 64.8466 32.6683 65.0706 33.1883 65.5186C33.7163 65.9666 33.9803 66.6226 33.9803 67.4866C33.9803 68.3906 33.7003 69.0786 33.1403 69.5506C32.5883 70.0146 31.7883 70.2466 30.7403 70.2466H27.4043V61.8466H28.2803V64.8466H30.9203ZM30.7163 69.5386C31.4923 69.5386 32.0803 69.3666 32.4803 69.0226C32.8883 68.6786 33.0923 68.1706 33.0923 67.4986C33.0923 66.2106 32.3003 65.5666 30.7163 65.5666H28.2803V69.5386H30.7163ZM35.4323 61.8466H36.3083V70.2466H35.4323V61.8466ZM42.8068 70.3186C41.9748 70.3186 41.2228 70.1346 40.5508 69.7666C39.8868 69.3986 39.3628 68.8906 38.9788 68.2426C38.6028 67.5866 38.4148 66.8546 38.4148 66.0466C38.4148 65.2386 38.6028 64.5106 38.9788 63.8626C39.3628 63.2066 39.8908 62.6946 40.5628 62.3266C41.2348 61.9586 41.9868 61.7746 42.8188 61.7746C43.4428 61.7746 44.0188 61.8786 44.5468 62.0866C45.0748 62.2946 45.5228 62.5986 45.8908 62.9986L45.3268 63.5626C44.6708 62.8986 43.8428 62.5666 42.8428 62.5666C42.1788 62.5666 41.5748 62.7186 41.0308 63.0226C40.4868 63.3266 40.0588 63.7426 39.7468 64.2706C39.4428 64.7986 39.2908 65.3906 39.2908 66.0466C39.2908 66.7026 39.4428 67.2946 39.7468 67.8226C40.0588 68.3506 40.4868 68.7666 41.0308 69.0706C41.5748 69.3746 42.1788 69.5266 42.8428 69.5266C43.8508 69.5266 44.6788 69.1906 45.3268 68.5186L45.8908 69.0826C45.5228 69.4826 45.0708 69.7906 44.5348 70.0066C44.0068 70.2146 43.4308 70.3186 42.8068 70.3186ZM53.1151 62.6146H50.1631V70.2466H49.2871V62.6146H46.3351V61.8466H53.1151V62.6146ZM59.6279 68.0026H54.9479L53.9399 70.2466H53.0159L56.8559 61.8466H57.7319L61.5719 70.2466H60.6359L59.6279 68.0026ZM59.3039 67.2826L57.2879 62.7706L55.2719 67.2826H59.3039ZM68.1616 65.9146C68.7456 66.0346 69.1896 66.2706 69.4936 66.6226C69.7976 66.9666 69.9496 67.4186 69.9496 67.9786C69.9496 68.7066 69.6896 69.2666 69.1696 69.6586C68.6576 70.0506 67.9016 70.2466 66.9016 70.2466H63.1816V61.8466H66.6736C67.5696 61.8466 68.2696 62.0306 68.7736 62.3986C69.2776 62.7666 69.5296 63.2986 69.5296 63.9946C69.5296 64.4666 69.4096 64.8666 69.1696 65.1946C68.9296 65.5146 68.5936 65.7546 68.1616 65.9146ZM64.0576 65.6506H66.6256C67.2736 65.6506 67.7696 65.5186 68.1136 65.2546C68.4656 64.9906 68.6416 64.6066 68.6416 64.1026C68.6416 63.5986 68.4656 63.2146 68.1136 62.9506C67.7696 62.6866 67.2736 62.5546 66.6256 62.5546H64.0576V65.6506ZM66.9016 69.5386C68.3496 69.5386 69.0736 68.9986 69.0736 67.9186C69.0736 66.8626 68.3496 66.3346 66.9016 66.3346H64.0576V69.5386H66.9016ZM75.8539 70.3186C75.0219 70.3186 74.2659 70.1346 73.5859 69.7666C72.9139 69.3906 72.3859 68.8786 72.0019 68.2306C71.6259 67.5826 71.4379 66.8546 71.4379 66.0466C71.4379 65.2386 71.6259 64.5106 72.0019 63.8626C72.3859 63.2146 72.9139 62.7066 73.5859 62.3386C74.2659 61.9626 75.0219 61.7746 75.8539 61.7746C76.6859 61.7746 77.4339 61.9586 78.0979 62.3266C78.7699 62.6946 79.2979 63.2066 79.6819 63.8626C80.0659 64.5106 80.2579 65.2386 80.2579 66.0466C80.2579 66.8546 80.0659 67.5866 79.6819 68.2426C79.2979 68.8906 78.7699 69.3986 78.0979 69.7666C77.4339 70.1346 76.6859 70.3186 75.8539 70.3186ZM75.8539 69.5266C76.5179 69.5266 77.1179 69.3786 77.6539 69.0826C78.1899 68.7786 78.6099 68.3626 78.9139 67.8346C79.2179 67.2986 79.3699 66.7026 79.3699 66.0466C79.3699 65.3906 79.2179 64.7986 78.9139 64.2706C78.6099 63.7346 78.1899 63.3186 77.6539 63.0226C77.1179 62.7186 76.5179 62.5666 75.8539 62.5666C75.1899 62.5666 74.5859 62.7186 74.0419 63.0226C73.5059 63.3186 73.0819 63.7346 72.7699 64.2706C72.4659 64.7986 72.3139 65.3906 72.3139 66.0466C72.3139 66.7026 72.4659 67.2986 72.7699 67.8346C73.0819 68.3626 73.5059 68.7786 74.0419 69.0826C74.5859 69.3786 75.1899 69.5266 75.8539 69.5266ZM88.1292 61.8466V70.2466H87.2652V66.7666C86.3532 67.1586 85.4692 67.3546 84.6132 67.3546C83.6292 67.3546 82.8612 67.1146 82.3092 66.6346C81.7652 66.1546 81.4932 65.4826 81.4932 64.6186V61.8466H82.3692V64.5226C82.3692 65.1706 82.5732 65.6746 82.9812 66.0346C83.3892 66.3946 83.9612 66.5746 84.6972 66.5746C85.5372 66.5746 86.3932 66.3746 87.2652 65.9746V61.8466H88.1292ZM97.9985 61.8466V70.2466H97.1225V66.3706H91.8665V70.2466H90.9785V61.8466H91.8665V65.5906H97.1225V61.8466H97.9985ZM106.21 68.0026H101.53L100.522 70.2466H99.598L103.438 61.8466H104.314L108.154 70.2466H107.218L106.21 68.0026ZM105.886 67.2826L103.87 62.7706L101.854 67.2826H105.886ZM115.329 61.8466V70.2466H114.453V67.7026H111.945C111.833 67.7026 111.673 67.6946 111.465 67.6786L109.701 70.2466H108.753L110.661 67.5226C110.045 67.3386 109.573 67.0146 109.245 66.5506C108.917 66.0786 108.753 65.5026 108.753 64.8226C108.753 63.8786 109.049 63.1466 109.641 62.6266C110.241 62.1066 111.049 61.8466 112.065 61.8466H115.329ZM109.641 64.7986C109.641 65.4866 109.841 66.0186 110.241 66.3946C110.649 66.7626 111.241 66.9466 112.017 66.9466H114.453V62.6146H112.101C111.317 62.6146 110.709 62.8026 110.277 63.1786C109.853 63.5466 109.641 64.0866 109.641 64.7986Z" fill="black"/>
<path fill-rule="evenodd" clip-rule="evenodd" d="M3.6 62.2511C3.6 62.3037 3.5775 62.3468 3.55 62.3468C3.5225 62.3468 3.5 62.3899 3.5 62.4426C3.5 62.4953 3.4775 62.5384 3.45 62.5384C3.4225 62.5384 3.4 62.603 3.4 62.682C3.4 62.7611 3.3775 62.8257 3.35 62.8257C3.3225 62.8257 3.3 62.8904 3.3 62.9694C3.3 63.0484 3.2775 63.113 3.25 63.113C3.2225 63.113 3.2 63.1561 3.2 63.2088C3.2 63.2615 3.1775 63.3046 3.15 63.3046C3.1225 63.3046 3.1 63.3692 3.1 63.4483C3.1 63.5273 3.0775 63.5919 3.05 63.5919C3.0225 63.5919 3 63.635 3 63.6877C3 63.7404 2.9775 63.7835 2.95 63.7835C2.9225 63.7835 2.9 63.8481 2.9 63.9271C2.9 64.0062 2.8775 64.0708 2.85 64.0708C2.8225 64.0708 2.8 64.1139 2.8 64.1666C2.8 64.2193 2.7775 64.2624 2.75 64.2624C2.7225 64.2624 2.7 64.327 2.7 64.406C2.7 64.485 2.6775 64.5497 2.65 64.5497C2.6225 64.5497 2.6 64.5928 2.6 64.6455C2.6 64.6981 2.5775 64.7412 2.55 64.7412C2.5225 64.7412 2.5 64.8059 2.5 64.8849C2.5 64.9639 2.4775 65.0286 2.45 65.0286C2.4225 65.0286 2.4 65.0717 2.4 65.1243C2.4 65.177 2.3775 65.2201 2.35 65.2201C2.3225 65.2201 2.3 65.2848 2.3 65.3638C2.3 65.4428 2.2775 65.5075 2.25 65.5075C2.2225 65.5075 2.2 65.5506 2.2 65.6032C2.2 65.6559 2.1775 65.699 2.15 65.699C2.1225 65.699 2.1 65.7637 2.1 65.8427C2.1 65.9217 2.0775 65.9863 2.05 65.9863C2.0225 65.9863 2 66.0294 2 66.0821C2 66.1348 1.9775 66.1779 1.95 66.1779C1.9225 66.1779 1.9 66.2425 1.9 66.3216C1.9 66.4006 1.8775 66.4652 1.85 66.4652C1.8225 66.4652 1.8 66.5083 1.8 66.561C1.8 66.6137 1.7775 66.6568 1.75 66.6568C1.7225 66.6568 1.7 66.7214 1.7 66.8004C1.7 66.8795 1.6775 66.9441 1.65 66.9441C1.6225 66.9441 1.6 66.9872 1.6 67.0399C1.6 67.0926 1.5775 67.1357 1.55 67.1357C1.5225 67.1357 1.5 67.2003 1.5 67.2793C1.5 67.3583 1.4775 67.423 1.45 67.423C1.4225 67.423 1.4 67.4876 1.4 67.5667C1.4 67.6457 1.3775 67.7103 1.35 67.7103C1.3225 67.7103 1.3 67.7534 1.3 67.8061C1.3 67.8588 1.2775 67.9019 1.25 67.9019C1.2225 67.9019 1.2 67.9665 1.2 68.0455C1.2 68.1245 1.1775 68.1892 1.15 68.1892C1.1225 68.1892 1.1 68.2323 1.1 68.285C1.1 68.3377 1.0775 68.3808 1.05 68.3808C1.0225 68.3808 1 68.4454 1 68.5244C1 68.6034 0.9775 68.6681 0.95 68.6681C0.9225 68.6681 0.9 68.7019 0.9 68.7433C0.9 68.9017 0.76785 68.9554 0.37855 68.9554H0V69.4343V69.9132H2.1H4.2V69.4343V68.9554H3.9C3.63335 68.9554 3.6 68.9448 3.6 68.8596C3.6 68.807 3.6225 68.7639 3.65 68.7639C3.6775 68.7639 3.7 68.6992 3.7 68.6202C3.7 68.5412 3.7225 68.4765 3.75 68.4765C3.7775 68.4765 3.8 68.4119 3.8 68.3329C3.8 68.2538 3.8225 68.1892 3.85 68.1892C3.8775 68.1892 3.9 68.1245 3.9 68.0455C3.9 67.9665 3.9225 67.9019 3.95 67.9019C3.9775 67.9019 4 67.8372 4 67.7582C4 67.6792 4.0225 67.6145 4.05 67.6145C4.0775 67.6145 4.1 67.5591 4.1 67.4914C4.1 67.4237 4.13375 67.3359 4.175 67.2964C4.24165 67.2326 4.25835 67.2326 4.325 67.2964C4.36625 67.3359 4.4 67.4021 4.4 67.4435C4.4 67.4849 4.4225 67.5188 4.45 67.5188C4.4775 67.5188 4.5 67.5571 4.5 67.604C4.5 67.6508 4.545 67.7202 4.6 67.7582C4.655 67.7962 4.7 67.8656 4.7 67.9125C4.7 67.9593 4.7225 67.9976 4.75 67.9976C4.7775 67.9976 4.8 68.036 4.8 68.0828C4.8 68.1297 4.845 68.1991 4.9 68.2371C4.955 68.2751 5 68.3445 5 68.3913C5 68.4382 5.0225 68.4765 5.05 68.4765C5.0775 68.4765 5.1 68.5149 5.1 68.5617C5.1 68.6086 5.145 68.678 5.2 68.716C5.255 68.7539 5.3 68.8233 5.3 68.8702C5.3 68.9171 5.3225 68.9554 5.35 68.9554C5.3775 68.9554 5.4 68.9938 5.4 69.0406C5.4 69.0875 5.445 69.1569 5.5 69.1949C5.555 69.2328 5.6 69.3022 5.6 69.3491C5.6 69.3959 5.6225 69.4343 5.65 69.4343C5.6775 69.4343 5.7 69.4727 5.7 69.5195C5.7 69.5664 5.745 69.6358 5.8 69.6737C5.855 69.7117 5.9 69.7811 5.9 69.828C5.9 69.8812 5.93745 69.9132 6 69.9132C6.06665 69.9132 6.1 69.8812 6.1 69.8174C6.1 69.7647 6.1225 69.7216 6.15 69.7216C6.1775 69.7216 6.2 69.6833 6.2 69.6364C6.2 69.5895 6.245 69.5202 6.3 69.4822C6.355 69.4442 6.4 69.3748 6.4 69.3279C6.4 69.2811 6.4225 69.2427 6.45 69.2427C6.4775 69.2427 6.5 69.2044 6.5 69.1575C6.5 69.1107 6.545 69.0413 6.6 69.0033C6.655 68.9653 6.7 68.9007 6.7 68.8596C6.7 68.8186 6.745 68.7539 6.8 68.716C6.855 68.678 6.9 68.6086 6.9 68.5617C6.9 68.5149 6.9225 68.4765 6.95 68.4765C6.9775 68.4765 7 68.4382 7 68.3913C7 68.3445 7.045 68.2751 7.1 68.2371C7.155 68.1991 7.2 68.1297 7.2 68.0828C7.2 68.036 7.2225 67.9976 7.25 67.9976C7.2775 67.9976 7.3 67.9593 7.3 67.9125C7.3 67.8656 7.345 67.7962 7.4 67.7582C7.455 67.7202 7.5 67.6508 7.5 67.604C7.5 67.5571 7.5225 67.5188 7.55 67.5188C7.5775 67.5188 7.6 67.4849 7.6 67.4435C7.6 67.3709 7.71275 67.2314 7.77145 67.2314C7.78715 67.2314 7.8 67.2745 7.8 67.3272C7.8 67.3799 7.8225 67.423 7.85 67.423C7.8775 67.423 7.9 67.4661 7.9 67.5188C7.9 67.5714 7.9225 67.6145 7.95 67.6145C7.9775 67.6145 8 67.6792 8 67.7582C8 67.8372 8.0225 67.9019 8.05 67.9019C8.0775 67.9019 8.1 67.9665 8.1 68.0455C8.1 68.1245 8.1225 68.1892 8.15 68.1892C8.1775 68.1892 8.2 68.2538 8.2 68.3329C8.2 68.4119 8.2225 68.4765 8.25 68.4765C8.2775 68.4765 8.3 68.5394 8.3 68.6162C8.3 68.693 8.3279 68.7648 8.36205 68.7757C8.4072 68.7901 8.40135 68.8173 8.34065 68.8754C8.287 68.9268 8.1754 68.9554 8.02855 68.9554H7.8V69.4343V69.9132H9.9H12V69.4343V68.9554H11.6214C11.2321 68.9554 11.1 68.9017 11.1 68.7433C11.1 68.7019 11.0775 68.6681 11.05 68.6681C11.0225 68.6681 11 68.6034 11 68.5244C11 68.4454 10.9775 68.3808 10.95 68.3808C10.9225 68.3808 10.9 68.3377 10.9 68.285C10.9 68.2323 10.8775 68.1892 10.85 68.1892C10.8225 68.1892 10.8 68.1245 10.8 68.0455C10.8 67.9665 10.7775 67.9019 10.75 67.9019C10.7225 67.9019 10.7 67.8588 10.7 67.8061C10.7 67.7534 10.6775 67.7103 10.65 67.7103C10.6225 67.7103 10.6 67.6457 10.6 67.5667C10.6 67.4876 10.5775 67.423 10.55 67.423C10.5225 67.423 10.5 67.3799 10.5 67.3272C10.5 67.2745 10.4775 67.2314 10.45 67.2314C10.4225 67.2314 10.4 67.1668 10.4 67.0878C10.4 67.0088 10.3775 66.9441 10.35 66.9441C10.3225 66.9441 10.3 66.901 10.3 66.8483C10.3 66.7956 10.2775 66.7525 10.25 66.7525C10.2225 66.7525 10.2 66.6879 10.2 66.6089C10.2 66.5299 10.1775 66.4652 10.15 66.4652C10.1225 66.4652 10.1 66.4221 10.1 66.3694C10.1 66.3168 10.0775 66.2737 10.05 66.2737C10.0225 66.2737 10 66.209 10 66.13C10 66.051 9.9775 65.9863 9.95 65.9863C9.9225 65.9863 9.9 65.9432 9.9 65.8906C9.9 65.8379 9.8775 65.7948 9.85 65.7948C9.8225 65.7948 9.8 65.7301 9.8 65.6511C9.8 65.5721 9.7775 65.5075 9.75 65.5075C9.7225 65.5075 9.7 65.4428 9.7 65.3638C9.7 65.2848 9.6775 65.2201 9.65 65.2201C9.6225 65.2201 9.6 65.177 9.6 65.1243C9.6 65.0717 9.5775 65.0286 9.55 65.0286C9.5225 65.0286 9.5 64.9639 9.5 64.8849C9.5 64.8059 9.4775 64.7412 9.45 64.7412C9.4225 64.7412 9.4 64.6981 9.4 64.6455C9.4 64.5928 9.3775 64.5497 9.35 64.5497C9.3225 64.5497 9.3 64.485 9.3 64.406C9.3 64.327 9.2775 64.2624 9.25 64.2624C9.2225 64.2624 9.2 64.2193 9.2 64.1666C9.2 64.1139 9.1775 64.0708 9.15 64.0708C9.1225 64.0708 9.1 64.0062 9.1 63.9271C9.1 63.8481 9.0775 63.7835 9.05 63.7835C9.0225 63.7835 9 63.7404 9 63.6877C9 63.635 8.9775 63.5919 8.95 63.5919C8.9225 63.5919 8.9 63.5273 8.9 63.4483C8.9 63.3692 8.8775 63.3046 8.85 63.3046C8.8225 63.3046 8.8 63.2615 8.8 63.2088C8.8 63.1561 8.7775 63.113 8.75 63.113C8.7225 63.113 8.7 63.0484 8.7 62.9694C8.7 62.8904 8.6775 62.8257 8.65 62.8257C8.6225 62.8257 8.6 62.7826 8.6 62.7299C8.6 62.6773 8.5775 62.6342 8.55 62.6342C8.5225 62.6342 8.5 62.5695 8.5 62.4905C8.5 62.4115 8.4775 62.3468 8.45 62.3468C8.4225 62.3468 8.4 62.3037 8.4 62.2511C8.4 62.1984 8.3775 62.1553 8.35 62.1553C8.3225 62.1553 8.3 62.1936 8.3 62.2405C8.3 62.2873 8.255 62.3567 8.2 62.3947C8.145 62.4327 8.1 62.5021 8.1 62.549C8.1 62.5958 8.0775 62.6342 8.05 62.6342C8.0225 62.6342 8 62.6773 8 62.7299C8 62.7826 7.9775 62.8257 7.95 62.8257C7.9225 62.8257 7.9 62.8641 7.9 62.9109C7.9 62.9578 7.855 63.0272 7.8 63.0652C7.745 63.1031 7.7 63.1725 7.7 63.2194C7.7 63.2662 7.6775 63.3046 7.65 63.3046C7.6225 63.3046 7.6 63.3477 7.6 63.4004C7.6 63.453 7.5775 63.4961 7.55 63.4961C7.5225 63.4961 7.5 63.5345 7.5 63.5813C7.5 63.6282 7.455 63.6976 7.4 63.7356C7.345 63.7736 7.3 63.843 7.3 63.8898C7.3 63.9367 7.2775 63.975 7.25 63.975C7.2225 63.975 7.2 64.0181 7.2 64.0708C7.2 64.1235 7.1775 64.1666 7.15 64.1666C7.1225 64.1666 7.1 64.2049 7.1 64.2518C7.1 64.2987 7.055 64.368 7 64.406C6.945 64.444 6.9 64.5134 6.9 64.5603C6.9 64.6071 6.8775 64.6455 6.85 64.6455C6.8225 64.6455 6.8 64.6886 6.8 64.7412C6.8 64.7939 6.7775 64.837 6.75 64.837C6.7225 64.837 6.7 64.8754 6.7 64.9222C6.7 64.9691 6.655 65.0385 6.6 65.0765C6.545 65.1144 6.5 65.1838 6.5 65.2307C6.5 65.2775 6.4775 65.3159 6.45 65.3159C6.4225 65.3159 6.4 65.359 6.4 65.4117C6.4 65.4644 6.3775 65.5075 6.35 65.5075C6.3225 65.5075 6.3 65.5458 6.3 65.5926C6.3 65.6395 6.255 65.7089 6.2 65.7469C6.145 65.7849 6.1 65.8543 6.1 65.9011C6.1 65.948 6.06465 65.9863 6.02145 65.9863C5.9204 65.9863 5.8 65.871 5.8 65.7742C5.8 65.7329 5.7775 65.699 5.75 65.699C5.7225 65.699 5.7 65.6559 5.7 65.6032C5.7 65.5506 5.6775 65.5075 5.65 65.5075C5.6225 65.5075 5.6 65.4691 5.6 65.4223C5.6 65.3754 5.555 65.306 5.5 65.268C5.445 65.23 5.4 65.1606 5.4 65.1138C5.4 65.0669 5.3775 65.0286 5.35 65.0286C5.3225 65.0286 5.3 64.9855 5.3 64.9328C5.3 64.8801 5.2775 64.837 5.25 64.837C5.2225 64.837 5.2 64.7987 5.2 64.7518C5.2 64.7049 5.155 64.6356 5.1 64.5976C5.045 64.5596 5 64.4902 5 64.4433C5 64.3965 4.9775 64.3581 4.95 64.3581C4.9225 64.3581 4.9 64.315 4.9 64.2624C4.9 64.2097 4.8775 64.1666 4.85 64.1666C4.8225 64.1666 4.8 64.1282 4.8 64.0814C4.8 64.0345 4.755 63.9651 4.7 63.9271C4.645 63.8892 4.6 63.8198 4.6 63.7729C4.6 63.7261 4.5775 63.6877 4.55 63.6877C4.5225 63.6877 4.5 63.6446 4.5 63.5919C4.5 63.5392 4.4775 63.4961 4.45 63.4961C4.4225 63.4961 4.4 63.4578 4.4 63.411C4.4 63.3641 4.355 63.2947 4.3 63.2567C4.245 63.2187 4.2 63.1493 4.2 63.1025C4.2 63.0556 4.1775 63.0173 4.15 63.0173C4.1225 63.0173 4.1 62.9742 4.1 62.9215C4.1 62.8688 4.0775 62.8257 4.05 62.8257C4.0225 62.8257 4 62.7874 4 62.7405C4 62.6936 3.955 62.6242 3.9 62.5863C3.845 62.5483 3.8 62.4789 3.8 62.432C3.8 62.3852 3.7775 62.3468 3.75 62.3468C3.7225 62.3468 3.7 62.3037 3.7 62.2511C3.7 62.1984 3.6775 62.1553 3.65 62.1553C3.6225 62.1553 3.6 62.1984 3.6 62.2511Z" fill="black"/>
<defs>
<linearGradient id="paint0_linear_1:89" x1="0" y1="11.2443" x2="177" y2="11.2443" gradientUnits="userSpaceOnUse">
<stop stop-color="#231F20"/>
</linearGradient>
</defs>
</svg>
